<?xml version="1.0" encoding="UTF-8"?>
<svg width="232px" height="222px" viewBox="0 0 232 222" version="1.1" xmlns="http://www.w3.org/2000/svg" xmlns:xlink="http://www.w3.org/1999/xlink">
    <!-- Generator: Sketch 59.1 (86144) - https://sketch.com -->
    <title>trakt-tall-white</title>
    <desc>Created with Sketch.</desc>
    <g id="Page-1" stroke="none" stroke-width="1" fill="none" fill-rule="evenodd">
        <g id="iPhone-8-Plus" transform="translate(-91.000000, -257.000000)" fill="#FFFFFF" fill-rule="nonzero">
            <g id="trakt-tall-white" transform="translate(91.000000, 257.000000)">
                <path d="M70,118.767742 C81.2105263,131.096774 97.4035088,139 115.309211,139 C124.495614,139 133.214912,136.945161 141,133.309677 L98.3377193,90 L70,118.767742 Z" id="Path"></path>
                <path d="M98.8411498,64.352861 L66.2723147,96.7847411 L61.8668684,92.3978202 L96.1664145,58.2425068 L96.1664145,58.2425068 L136.287443,18.2901907 C129.993949,16.0967302 123.228442,15 116.14826,15 C81.8487141,15 54,42.5749319 54,76.886921 C54,90.8310627 58.5627837,103.678474 66.429652,114.019074 L98.9984871,81.5871935 L101.20121,83.780654 L147.930408,130 C148.874433,129.529973 149.818457,128.90327 150.605144,128.276567 L99.1558245,77.0435967 L67.8456884,108.222071 L63.4402421,103.83515 L99.1558245,68.2697548 L101.358548,70.4632153 L155.639939,124.516349 C156.426626,123.889646 157.213313,123.106267 158,122.479564 L99.3131619,64.352861 L98.8411498,64.352861 Z" id="Path"></path>
                <path d="M161.962264,119 C171.867925,107.988764 178,93.3595506 178,77.3146067 C178,52.4606742 163.377358,30.9101124 142.150943,21 L103,60.1685393 L161.962264,119 Z M118.09434,71.494382 L113.691824,67.0898876 L144.352201,36.4157303 L148.754717,40.8202247 L118.09434,71.494382 Z M147.18239,29.1797753 L111.647799,64.7303371 L107.245283,60.3258427 L142.779874,24.7752809 L147.18239,29.1797753 Z" id="Shape"></path>
                <path d="M116,154 C73.5010183,154 39,119.463812 39,76.9215087 C39.1568228,34.5361876 73.6578411,0 116,0 C158.342159,0 193,34.5361876 193,77.0784913 C193,119.463812 158.498982,154 116,154 Z M116,7.69215087 C77.892057,7.69215087 46.8411405,38.7747197 46.8411405,76.9215087 C46.8411405,115.068298 77.892057,146.150866 116,146.150866 C154.107943,146.150866 185.315682,115.22528 185.315682,77.0784913 C185.315682,38.9317023 154.264766,7.69215087 116,7.69215087 Z" id="Shape"></path>
                <g id="Group" transform="translate(0.000000, 181.000000)">
                    <polygon id="Path" points="12.0702703 40.7555556 12.0702703 7.62222222 0 7.62222222 0 0 32.7621622 0 32.7621622 7.62222222 20.8486486 7.62222222 20.8486486 40.7555556 12.0702703 40.7555556"></polygon>
                    <path d="M70.8540541,40.7555556 L62.8594595,26.2888889 L56.4324324,26.2888889 L56.4324324,40.7555556 L47.6540541,40.7555556 L47.6540541,0 L66.7783784,0 C75.4,0 80.572973,5.6 80.572973,13.0666667 C80.572973,20.2222222 76.027027,24.1111111 71.6378378,25.2 L80.8864865,40.7555556 L70.8540541,40.7555556 L70.8540541,40.7555556 Z M71.7945946,13.0666667 C71.7945946,9.64444444 69.1297297,7.62222222 65.6810811,7.62222222 L56.4324324,7.62222222 L56.4324324,18.6666667 L65.5243243,18.6666667 C69.1297297,18.6666667 71.7945946,16.4888889 71.7945946,13.0666667 Z" id="Shape"></path>
                    <path d="M126.972973,40.7555556 L124.464865,33.9111111 L106.908108,33.9111111 L104.4,40.7555556 L94.3675676,40.7555556 L110.2,0 L121.172973,0 L137.005405,40.7555556 L126.972973,40.7555556 Z M115.686486,8.71111111 L109.259459,26.2888889 L122.113514,26.2888889 L115.686486,8.71111111 Z" id="Shape"></path>
                    <polygon id="Path" points="175.410811 40.7555556 163.027027 24.4222222 159.891892 28.1555556 159.891892 40.6 151.113514 40.6 151.113514 0 159.891892 0 159.891892 18.2 174.47027 0 185.286486 0 168.983784 19.1333333 186.383784 40.7555556"></polygon>
                    <polygon id="Path" points="210.681081 40.7555556 210.681081 7.62222222 198.610811 7.62222222 198.610811 0 231.372973 0 231.372973 7.62222222 219.459459 7.62222222 219.459459 40.7555556 210.681081 40.7555556"></polygon>
                </g>
            </g>
        </g>
    </g>
</svg>