<?xml version="1.0" encoding="UTF-8"?>
<svg width="113px" height="20px" viewBox="0 0 113 20" version="1.1" xmlns="http://www.w3.org/2000/svg" xmlns:xlink="http://www.w3.org/1999/xlink">
    <!-- Generator: Sketch 59.1 (86144) - https://sketch.com -->
    <title>Group</title>
    <desc>Created with Sketch.</desc>
    <g id="Page-1" stroke="none" stroke-width="1" fill="none" fill-rule="evenodd">
        <g id="iPhone-8-Plus" transform="translate(-151.000000, -32.000000)" fill="#FFFFFF" fill-rule="nonzero">
            <g id="trakt-wide-white" transform="translate(151.000000, 32.000000)">
                <g id="Group">
                    <polygon id="Path" points="6.36436782 19.8064516 6.36436782 3.74193548 0.51954023 3.74193548 0.51954023 0 16.4304598 0 16.4304598 3.74193548 10.6505747 3.74193548 10.6505747 19.8064516 6.36436782 19.8064516"></polygon>
                    <path d="M34.9390805,19.8064516 L31.0425287,12.7741935 L27.9252874,12.7741935 L27.9252874,19.8064516 L23.704023,19.8064516 L23.704023,0 L33.0557471,0 C37.212069,0 39.7448276,2.70967742 39.7448276,6.38709677 C39.7448276,9.87096774 37.5367816,11.7419355 35.3936782,12.2580645 L39.8747126,19.8064516 L34.9390805,19.8064516 Z M35.3936782,6.38709677 C35.3936782,4.70967742 34.0948276,3.74193548 32.4063218,3.74193548 L27.9252874,3.74193548 L27.9252874,9.03225806 L32.4063218,9.03225806 C34.0948276,9.03225806 35.3936782,8.06451613 35.3936782,6.38709677 Z" id="Shape"></path>
                    <path d="M62.15,19.8064516 L60.916092,16.4516129 L52.3436782,16.4516129 L51.1097701,19.8064516 L46.2390805,19.8064516 L53.9672414,0 L59.2925287,0 L66.9557471,19.8064516 L62.15,19.8064516 Z M56.6298851,4.19354839 L53.5126437,12.7096774 L59.7471264,12.7096774 L56.6298851,4.19354839 Z" id="Shape"></path>
                    <polygon id="Path" points="85.7241379 19.8064516 79.6844828 11.8709677 78.1258621 13.7419355 78.1258621 19.8064516 73.9045977 19.8064516 73.9045977 0 78.1258621 0 78.1258621 8.83870968 85.1396552 0 90.4 0 82.4770115 9.29032258 90.9195402 19.8064516"></polygon>
                    <polygon id="Path" points="102.804023 19.8064516 102.804023 3.74193548 96.9591954 3.74193548 96.9591954 0 112.870115 0 112.870115 3.74193548 107.09023 3.74193548 107.09023 19.8064516 102.804023 19.8064516"></polygon>
                </g>
            </g>
        </g>
    </g>
</svg>