<?xml version="1.0" encoding="UTF-8"?>
<svg width="221px" height="75px" viewBox="0 0 221 75" version="1.1" xmlns="http://www.w3.org/2000/svg" xmlns:xlink="http://www.w3.org/1999/xlink">
    <!-- Generator: Sketch 59.1 (86144) - https://sketch.com -->
    <title>trakt-wide-white</title>
    <desc>Created with Sketch.</desc>
    <g id="Page-1" stroke="none" stroke-width="1" fill="none" fill-rule="evenodd">
        <g id="hb-screen" transform="translate(-143.000000, -73.000000)" fill="#FFFFFF" fill-rule="nonzero">
            <g id="trakt-wide-white" transform="translate(143.000000, 73.000000)">
                <path d="M15,58.0903226 C20.5263158,64.1290323 28.5087719,68 37.3355263,68 C41.8640351,68 46.1622807,66.9935484 50,65.2129032 L28.9692982,44 L15,58.0903226 Z" id="Path"></path>
                <path d="M28.5151515,31.4618529 L12.8333333,47.5367847 L10.7121212,45.3623978 L27.2272727,28.4332425 L27.2272727,28.4332425 L46.5454545,8.63079019 C43.5151515,7.54359673 40.2575758,7 36.8484848,7 C20.4090909,7 7,20.6675749 7,37.6743869 C7,44.5858311 9.1969697,50.9536785 12.9848485,56.0790191 L28.6666667,40.0040872 L29.7272727,41.0912807 L52.1515152,64 C52.6060606,63.76703 53.0606061,63.4564033 53.4393939,63.1457766 L28.6666667,37.7520436 L13.5909091,53.2057221 L11.469697,51.0313351 L28.6666667,33.4032698 L29.7272727,34.4904632 L55.8636364,61.2820163 C56.2424242,60.9713896 56.6212121,60.5831063 57,60.2724796 L28.8181818,31.4618529 L28.5151515,31.4618529 Z" id="Path"></path>
                <path d="M60.0714286,58 C64.9684874,52.6067416 68,45.4414125 68,37.5826645 C68,25.4093098 60.7710084,14.8539326 50.2773109,10 L31,29.1845907 L60.0714286,58 Z M38.3844538,34.7319422 L36.2079832,32.5746388 L51.4432773,17.5505618 L53.6197479,19.7078652 L38.3844538,34.7319422 Z M52.842437,14.0064205 L35.2752101,31.4189406 L33.0987395,29.2616372 L50.6659664,11.8491172 L52.842437,14.0064205 Z" id="Shape"></path>
                <path d="M37.5,75 C16.802444,75 0,58.1804281 0,37.5382263 C0,16.8195719 16.802444,0 37.5,0 C58.197556,0 75,16.8195719 75,37.5382263 C74.9236253,58.1804281 58.1211813,75 37.5,75 Z M37.5,3.74617737 C18.8645621,3.74617737 3.74236253,18.883792 3.74236253,37.5382263 C3.74236253,56.1926606 18.8645621,71.2538226 37.4236253,71.2538226 C55.9826884,71.2538226 71.104888,56.116208 71.104888,37.5382263 C71.104888,18.9602446 56.0590631,3.74617737 37.5,3.74617737 Z" id="Shape"></path>
                <g id="Group" transform="translate(88.000000, 24.000000)">
                    <polygon id="Path" points="7.4908046 23.7677419 7.4908046 4.49032258 0.611494253 4.49032258 0.611494253 0 19.3385057 0 19.3385057 4.49032258 12.5356322 4.49032258 12.5356322 23.7677419 7.4908046 23.7677419"></polygon>
                    <path d="M41.1229885,23.7677419 L36.5367816,15.3290323 L32.8678161,15.3290323 L32.8678161,23.7677419 L27.8994253,23.7677419 L27.8994253,0 L38.9063218,0 C43.7982759,0 46.7793103,3.2516129 46.7793103,7.66451613 C46.7793103,11.8451613 44.1804598,14.0903226 41.658046,14.7096774 L46.9321839,23.7677419 L41.1229885,23.7677419 Z M41.658046,7.66451613 C41.658046,5.6516129 40.1293103,4.49032258 38.141954,4.49032258 L32.8678161,4.49032258 L32.8678161,10.8387097 L38.141954,10.8387097 C40.1293103,10.8387097 41.658046,9.67741935 41.658046,7.66451613 Z" id="Shape"></path>
                    <path d="M73.15,23.7677419 L71.6977011,19.7419355 L61.608046,19.7419355 L60.1557471,23.7677419 L54.4229885,23.7677419 L63.5189655,0 L69.7867816,0 L78.8063218,23.7677419 L73.15,23.7677419 Z M66.6528736,5.03225806 L62.983908,15.2516129 L70.3218391,15.2516129 L66.6528736,5.03225806 Z" id="Shape"></path>
                    <polygon id="Path" points="100.896552 23.7677419 93.787931 14.2451613 91.9534483 16.4903226 91.9534483 23.7677419 86.9850575 23.7677419 86.9850575 0 91.9534483 0 91.9534483 10.6064516 100.208621 0 106.4 0 97.0747126 11.1483871 107.011494 23.7677419"></polygon>
                    <polygon id="Path" points="120.999425 23.7677419 120.999425 4.49032258 114.120115 4.49032258 114.120115 0 132.847126 0 132.847126 4.49032258 126.044253 4.49032258 126.044253 23.7677419 120.999425 23.7677419"></polygon>
                </g>
            </g>
        </g>
    </g>
</svg>